<svg width="20" height="20" viewBox="0 0 20 20" fill="none" xmlns="http://www.w3.org/2000/svg">
<path d="M8.75 1.25C6.6875 1.25 5 2.9375 5 5V7.5C3.9375 7.5 3.125 8.3125 3.125 9.375V13.125C3.125 14.625 3.6875 16.0625 4.75 17.125C5.8125 18.1875 7.25 18.75 8.75 18.75C11.4375 18.75 13.6875 16.875 14.25 14.375H14.375C15.0625 14.375 15.6875 14.125 16.125 13.625C16.625 13.125 16.875 12.5 16.875 11.875C16.875 11.25 16.625 10.5625 16.125 10.125C15.625 9.6875 15.0625 9.375 14.375 9.375C14.375 8.3125 13.5625 7.5 12.5 7.5V5C12.5 2.9375 10.8125 1.25 8.75 1.25ZM15.25 11C15.5 11.25 15.625 11.5625 15.625 11.875C15.625 12.1875 15.5 12.5 15.25 12.75C14.9375 13.0625 14.4375 13.1875 13.9375 13.0625C13.4375 12.875 13.125 12.4375 13.125 11.875C13.125 11.5625 13.25 11.25 13.5 11C13.625 10.875 13.8125 10.75 14 10.6875C14.125 10.625 14.25 10.625 14.375 10.625C14.6875 10.625 15 10.75 15.25 11ZM13.125 9.375V9.75C12.9375 9.875 12.75 10 12.625 10.125C12.3125 10.4375 12.0625 10.8125 12 11.25H6.25C5.875 11.25 5.625 11.5 5.625 11.875V13.125C5.625 13.5 5.875 13.75 6.25 13.75C6.625 13.75 6.875 13.5 6.875 13.125V12.5H8.125V13.125C8.125 13.5 8.375 13.75 8.75 13.75C9.125 13.75 9.375 13.5 9.375 13.125V12.5H11.9375C12.125 13.125 12.5 13.625 13 14C12.625 16 10.875 17.5 8.75 17.5C7.5625 17.5 6.5 17.0625 5.625 16.25C4.8125 15.4375 4.375 14.3125 4.375 13.125V9.375C4.375 9 4.625 8.75 5 8.75H12.5C12.875 8.75 13.125 9 13.125 9.375ZM6.25 7.5V5C6.25 3.625 7.375 2.5 8.75 2.5C10.125 2.5 11.25 3.625 11.25 5V7.5H6.25Z" fill="#838D8D"/>
</svg>
