<svg width="20" height="20" viewBox="0 0 20 20" fill="none" xmlns="http://www.w3.org/2000/svg">
    <path
        d="M13.0879 5.4375C13.0879 5.60937 13.0762 5.78125 13.0547 5.95117C13.0645 5.88281 13.0742 5.8125 13.082 5.74414C13.0352 6.08398 12.9453 6.41406 12.8145 6.73046C12.8398 6.66796 12.8672 6.60546 12.8926 6.54296C12.7617 6.85156 12.5938 7.14062 12.3887 7.40625L12.5117 7.24804C12.3086 7.50976 12.0723 7.74609 11.8105 7.94921L11.9688 7.82617C11.7031 8.02929 11.4141 8.19921 11.1055 8.33007C11.168 8.30468 11.2305 8.27734 11.293 8.25195C10.9766 8.38281 10.6465 8.47265 10.3066 8.51953C10.375 8.50976 10.4453 8.5 10.5137 8.49218C10.1719 8.5371 9.82813 8.5371 9.48633 8.49218C9.55469 8.50195 9.625 8.51171 9.69336 8.51953C9.35352 8.47265 9.02344 8.38281 8.70703 8.25195C8.76953 8.27734 8.83203 8.30468 8.89453 8.33007C8.58594 8.19921 8.29688 8.03125 8.03125 7.82617L8.18945 7.94921C7.92773 7.74609 7.69141 7.50976 7.48828 7.24804L7.61133 7.40625C7.4082 7.14062 7.23828 6.85156 7.10742 6.54296C7.13281 6.60546 7.16016 6.66796 7.18555 6.73046C7.05469 6.41406 6.96484 6.08398 6.91797 5.74414C6.92773 5.8125 6.9375 5.88281 6.94531 5.95117C6.90039 5.60937 6.90039 5.26562 6.94531 4.92382C6.93555 4.99218 6.92578 5.0625 6.91797 5.13086C6.96484 4.79101 7.05469 4.46093 7.18555 4.14453C7.16016 4.20703 7.13281 4.26953 7.10742 4.33203C7.23828 4.02343 7.40625 3.73437 7.61133 3.46875L7.48828 3.62695C7.69141 3.36523 7.92773 3.1289 8.18945 2.92578L8.03125 3.04882C8.29688 2.8457 8.58594 2.67578 8.89453 2.54492C8.83203 2.57031 8.76953 2.59765 8.70703 2.62304C9.02344 2.49218 9.35352 2.40234 9.69336 2.35546C9.625 2.36523 9.55469 2.375 9.48633 2.38281C9.82813 2.33789 10.1719 2.33789 10.5137 2.38281C10.4453 2.37304 10.375 2.36328 10.3066 2.35546C10.6465 2.40234 10.9766 2.49218 11.293 2.62304C11.2305 2.59765 11.168 2.57031 11.1055 2.54492C11.4141 2.67578 11.7031 2.84375 11.9688 3.04882L11.8105 2.92578C12.0723 3.1289 12.3086 3.36523 12.5117 3.62695L12.3887 3.46875C12.5918 3.73437 12.7617 4.02343 12.8926 4.33203C12.8672 4.26953 12.8398 4.20703 12.8145 4.14453C12.9453 4.46093 13.0352 4.79101 13.082 5.13086C13.0723 5.0625 13.0625 4.99218 13.0547 4.92382C13.0762 5.09375 13.0859 5.26562 13.0879 5.4375C13.0898 5.8457 13.4453 6.23828 13.8691 6.21875C14.291 6.19921 14.6523 5.875 14.6504 5.4375C14.6465 4.50195 14.3652 3.54492 13.8145 2.7832C13.666 2.57812 13.5078 2.37695 13.332 2.19531C13.1543 2.01171 12.959 1.85351 12.7559 1.69921C12.3867 1.41796 11.9746 1.21093 11.5371 1.05078C9.77344 0.404293 7.64648 0.980465 6.45313 2.43359C6.28906 2.63281 6.13281 2.83984 6 3.0625C5.86719 3.2832 5.76367 3.51757 5.66797 3.75586C5.48828 4.19726 5.39648 4.66601 5.35938 5.14062C5.28711 6.07031 5.5293 7.04101 6.01367 7.83789C6.48047 8.60742 7.18555 9.26757 8.00977 9.64062C8.25195 9.75 8.5 9.85156 8.75781 9.92382C9.01367 9.99414 9.27344 10.0332 9.53711 10.0644C10.0176 10.1211 10.5078 10.082 10.9824 9.98632C12.7852 9.61914 14.2949 8.0664 14.5742 6.24414C14.6152 5.97851 14.6465 5.71289 14.6465 5.44336C14.6484 5.03515 14.2852 4.64257 13.8652 4.66211C13.4434 4.67578 13.0879 5 13.0879 5.4375ZM15.6797 17.6504H5.6582C5.21484 17.6504 4.77148 17.6543 4.32812 17.6504C4.2793 17.6504 4.23047 17.6465 4.18359 17.6406C4.25195 17.6504 4.32227 17.6602 4.39062 17.668C4.3125 17.6562 4.23828 17.6348 4.16602 17.6055C4.22852 17.6309 4.29102 17.6582 4.35352 17.6836C4.27539 17.6504 4.20312 17.6074 4.13477 17.5547L4.29297 17.6777C4.23438 17.6289 4.17969 17.5762 4.13281 17.5176L4.25586 17.6758C4.20312 17.6074 4.16211 17.5352 4.12695 17.457C4.15234 17.5195 4.17969 17.582 4.20508 17.6445C4.17578 17.5723 4.15625 17.4961 4.14258 17.4199C4.15234 17.4883 4.16211 17.5586 4.16992 17.6269C4.13867 17.3906 4.16016 17.1406 4.16016 16.9023V16.0664C4.16016 15.8574 4.17187 15.6504 4.19922 15.4434C4.18945 15.5117 4.17969 15.582 4.17188 15.6504C4.22656 15.25 4.33203 14.8574 4.49023 14.4844C4.46484 14.5469 4.4375 14.6094 4.41211 14.6719C4.56445 14.3164 4.75977 13.9824 4.99609 13.6758L4.87305 13.834C5.10938 13.5312 5.38086 13.2578 5.68555 13.0215L5.52734 13.1445C5.83398 12.9082 6.16797 12.7129 6.52344 12.5605C6.46094 12.5859 6.39844 12.6133 6.33594 12.6387C6.70898 12.4824 7.09961 12.375 7.50195 12.3203C7.43359 12.3301 7.36328 12.3398 7.29492 12.3477C7.58398 12.3105 7.87109 12.3086 8.16211 12.3086H11.7363C12.0586 12.3086 12.3789 12.3066 12.7012 12.3477C12.6328 12.3379 12.5625 12.3281 12.4941 12.3203C12.8945 12.375 13.2871 12.4805 13.6602 12.6387C13.5977 12.6133 13.5352 12.5859 13.4727 12.5605C13.8281 12.7129 14.1621 12.9082 14.4688 13.1445L14.3105 13.0215C14.6133 13.2578 14.8867 13.5293 15.123 13.834L15 13.6758C15.2363 13.9824 15.4316 14.3164 15.584 14.6719C15.5586 14.6094 15.5313 14.5469 15.5059 14.4844C15.6621 14.8574 15.7695 15.248 15.8242 15.6504C15.8145 15.582 15.8047 15.5117 15.7969 15.4434C15.834 15.7383 15.8359 16.0312 15.8359 16.3281V17.2949C15.8359 17.4062 15.8398 17.5176 15.8262 17.6269C15.8359 17.5586 15.8457 17.4883 15.8535 17.4199C15.8418 17.498 15.8203 17.5723 15.791 17.6445C15.8164 17.582 15.8438 17.5195 15.8691 17.457C15.8359 17.5352 15.793 17.6074 15.7402 17.6758L15.8633 17.5176C15.8145 17.5762 15.7617 17.6309 15.7031 17.6777L15.8613 17.5547C15.793 17.6074 15.7207 17.6484 15.6426 17.6836C15.7051 17.6582 15.7676 17.6309 15.8301 17.6055C15.7578 17.6348 15.6816 17.6543 15.6055 17.668C15.6738 17.6582 15.7441 17.6484 15.8125 17.6406C15.7695 17.6465 15.7246 17.6484 15.6797 17.6504C15.4785 17.6523 15.2715 17.7363 15.127 17.8789C14.9922 18.0137 14.8887 18.2363 14.8984 18.4316C14.918 18.8496 15.2422 19.2187 15.6797 19.2129C16.4395 19.2012 17.1074 18.7051 17.3301 17.9766C17.418 17.6875 17.3984 17.3769 17.3984 17.0801C17.3984 16.4004 17.4199 15.7266 17.3027 15.0527C17.1309 14.0664 16.6348 13.1387 15.9551 12.4102C15.2754 11.6816 14.3613 11.1465 13.3945 10.9082C12.8398 10.7715 12.2813 10.75 11.7148 10.75H8.25C7.66992 10.75 7.09375 10.7773 6.5293 10.9277C5.57031 11.1816 4.66797 11.7227 4.00195 12.457C3.33008 13.1973 2.84375 14.1269 2.68555 15.1191C2.58008 15.7852 2.60156 16.4531 2.60156 17.125C2.60156 17.4336 2.58398 17.7559 2.69531 18.0508C2.83984 18.4297 3.07031 18.7285 3.4082 18.9531C3.67187 19.1269 4.00586 19.2109 4.31836 19.2148C4.4707 19.2168 4.62305 19.2148 4.77539 19.2148H15.6816C16.0898 19.2148 16.4824 18.8555 16.4629 18.4336C16.4434 18.0078 16.1191 17.6504 15.6797 17.6504Z"
        fill="#838D8D" />
</svg>